<svg xmlns="http://www.w3.org/2000/svg" version="1.1" xmlns:xlink="http://www.w3.org/1999/xlink" xmlns:svgjs="http://svgjs.dev/svgjs" width="1440" height="560" preserveAspectRatio="none" viewBox="0 0 1440 560"><g mask="url(&quot;#SvgjsMask1004&quot;)" fill="none"><rect width="1440" height="560" x="0" y="0" fill="rgba(8, 47, 73, 1)"></rect><path d="M6.34 100.38L38.38 118.88L38.38 155.88L6.34 174.38L-25.7 155.88L-25.7 118.88zM38.38 266.88L70.43 285.38L70.43 322.38L38.38 340.88L6.34 322.38L6.34 285.38zM38.38 377.88L70.43 396.38L70.43 433.38L38.38 451.88L6.34 433.38L6.34 396.38zM6.34 433.38L38.38 451.88L38.38 488.88L6.34 507.38L-25.7 488.88L-25.7 451.88zM70.43 100.38L102.47 118.88L102.47 155.88L70.43 174.38L38.38 155.88L38.38 118.88zM134.52 100.38L166.56 118.88L166.56 155.88L134.52 174.38L102.47 155.88L102.47 118.88zM134.52 211.38L166.56 229.88L166.56 266.88L134.52 285.38L102.47 266.88L102.47 229.88zM166.56 488.88L198.6 507.38L198.6 544.38L166.56 562.88L134.52 544.38L134.52 507.38zM230.65 44.88L262.69 63.38L262.69 100.38L230.65 118.88L198.6 100.38L198.6 63.38zM198.6 544.38L230.65 562.88L230.65 599.88L198.6 618.38L166.56 599.88L166.56 562.88zM294.73 44.88L326.78 63.38L326.78 100.38L294.73 118.88L262.69 100.38L262.69 63.38zM294.73 155.88L326.78 174.38L326.78 211.38L294.73 229.88L262.69 211.38L262.69 174.38zM294.73 488.88L326.78 507.38L326.78 544.38L294.73 562.88L262.69 544.38L262.69 507.38zM326.78 -10.62L358.82 7.88L358.82 44.88L326.78 63.38L294.73 44.88L294.73 7.88zM326.78 544.38L358.82 562.88L358.82 599.88L326.78 618.38L294.73 599.88L294.73 562.88zM390.87 -10.62L422.91 7.88L422.91 44.88L390.87 63.38L358.82 44.88L358.82 7.88zM422.91 155.88L454.95 174.38L454.95 211.38L422.91 229.88L390.87 211.38L390.87 174.38zM487 44.88L519.04 63.38L519.04 100.38L487 118.88L454.95 100.38L454.95 63.38zM487 266.88L519.04 285.38L519.04 322.38L487 340.88L454.95 322.38L454.95 285.38zM454.95 433.38L487 451.88L487 488.88L454.95 507.38L422.91 488.88L422.91 451.88zM519.04 100.38L551.09 118.88L551.09 155.88L519.04 174.38L487 155.88L487 118.88zM551.09 155.88L583.13 174.38L583.13 211.38L551.09 229.88L519.04 211.38L519.04 174.38zM551.09 377.88L583.13 396.38L583.13 433.38L551.09 451.88L519.04 433.38L519.04 396.38zM551.09 488.88L583.13 507.38L583.13 544.38L551.09 562.88L519.04 544.38L519.04 507.38zM519.04 544.38L551.09 562.88L551.09 599.88L519.04 618.38L487 599.88L487 562.88zM615.17 155.88L647.22 174.38L647.22 211.38L615.17 229.88L583.13 211.38L583.13 174.38zM615.17 266.88L647.22 285.38L647.22 322.38L615.17 340.88L583.13 322.38L583.13 285.38zM583.13 322.38L615.17 340.88L615.17 377.88L583.13 396.38L551.09 377.88L551.09 340.88zM615.17 377.88L647.22 396.38L647.22 433.38L615.17 451.88L583.13 433.38L583.13 396.38zM615.17 488.88L647.22 507.38L647.22 544.38L615.17 562.88L583.13 544.38L583.13 507.38zM679.26 266.88L711.3 285.38L711.3 322.38L679.26 340.88L647.22 322.38L647.22 285.38zM711.3 322.38L743.35 340.88L743.35 377.88L711.3 396.38L679.26 377.88L679.26 340.88zM743.35 377.88L775.39 396.38L775.39 433.38L743.35 451.88L711.3 433.38L711.3 396.38zM775.39 -10.62L807.44 7.88L807.44 44.88L775.39 63.38L743.35 44.88L743.35 7.88zM807.44 266.88L839.48 285.38L839.48 322.38L807.44 340.88L775.39 322.38L775.39 285.38zM807.44 488.88L839.48 507.38L839.48 544.38L807.44 562.88L775.39 544.38L775.39 507.38zM871.52 266.88L903.57 285.38L903.57 322.38L871.52 340.88L839.48 322.38L839.48 285.38zM839.48 322.38L871.52 340.88L871.52 377.88L839.48 396.38L807.44 377.88L807.44 340.88zM935.61 377.88L967.66 396.38L967.66 433.38L935.61 451.88L903.57 433.38L903.57 396.38zM903.57 433.38L935.61 451.88L935.61 488.88L903.57 507.38L871.52 488.88L871.52 451.88zM935.61 488.88L967.66 507.38L967.66 544.38L935.61 562.88L903.57 544.38L903.57 507.38zM999.7 155.88L1031.74 174.38L1031.74 211.38L999.7 229.88L967.66 211.38L967.66 174.38zM1191.96 44.88L1224.01 63.38L1224.01 100.38L1191.96 118.88L1159.92 100.38L1159.92 63.38zM1159.92 322.38L1191.96 340.88L1191.96 377.88L1159.92 396.38L1127.87 377.88L1127.87 340.88zM1256.05 44.88L1288.09 63.38L1288.09 100.38L1256.05 118.88L1224.01 100.38L1224.01 63.38zM1256.05 155.88L1288.09 174.38L1288.09 211.38L1256.05 229.88L1224.01 211.38L1224.01 174.38zM1256.05 266.88L1288.09 285.38L1288.09 322.38L1256.05 340.88L1224.01 322.38L1224.01 285.38zM1384.23 44.88L1416.27 63.38L1416.27 100.38L1384.23 118.88L1352.18 100.38L1352.18 63.38zM1352.18 100.38L1384.23 118.88L1384.23 155.88L1352.18 174.38L1320.14 155.88L1320.14 118.88zM1384.23 155.88L1416.27 174.38L1416.27 211.38L1384.23 229.88L1352.18 211.38L1352.18 174.38zM1448.31 377.88L1480.36 396.38L1480.36 433.38L1448.31 451.88L1416.27 433.38L1416.27 396.38z" stroke="rgba(7, 55, 86, 1)" stroke-width="2"></path><path d="M2.64 100.38 a3.7 3.7 0 1 0 7.4 0 a3.7 3.7 0 1 0 -7.4 0zM34.68 118.88 a3.7 3.7 0 1 0 7.4 0 a3.7 3.7 0 1 0 -7.4 0zM34.68 155.88 a3.7 3.7 0 1 0 7.4 0 a3.7 3.7 0 1 0 -7.4 0zM2.64 174.38 a3.7 3.7 0 1 0 7.4 0 a3.7 3.7 0 1 0 -7.4 0zM-29.4 155.88 a3.7 3.7 0 1 0 7.4 0 a3.7 3.7 0 1 0 -7.4 0zM-29.4 118.88 a3.7 3.7 0 1 0 7.4 0 a3.7 3.7 0 1 0 -7.4 0zM34.68 266.88 a3.7 3.7 0 1 0 7.4 0 a3.7 3.7 0 1 0 -7.4 0zM66.73 285.38 a3.7 3.7 0 1 0 7.4 0 a3.7 3.7 0 1 0 -7.4 0zM66.73 322.38 a3.7 3.7 0 1 0 7.4 0 a3.7 3.7 0 1 0 -7.4 0zM34.68 340.88 a3.7 3.7 0 1 0 7.4 0 a3.7 3.7 0 1 0 -7.4 0zM2.64 322.38 a3.7 3.7 0 1 0 7.4 0 a3.7 3.7 0 1 0 -7.4 0zM2.64 285.38 a3.7 3.7 0 1 0 7.4 0 a3.7 3.7 0 1 0 -7.4 0zM34.68 377.88 a3.7 3.7 0 1 0 7.4 0 a3.7 3.7 0 1 0 -7.4 0zM66.73 396.38 a3.7 3.7 0 1 0 7.4 0 a3.7 3.7 0 1 0 -7.4 0zM66.73 433.38 a3.7 3.7 0 1 0 7.4 0 a3.7 3.7 0 1 0 -7.4 0zM34.68 451.88 a3.7 3.7 0 1 0 7.4 0 a3.7 3.7 0 1 0 -7.4 0zM2.64 433.38 a3.7 3.7 0 1 0 7.4 0 a3.7 3.7 0 1 0 -7.4 0zM2.64 396.38 a3.7 3.7 0 1 0 7.4 0 a3.7 3.7 0 1 0 -7.4 0zM34.68 488.88 a3.7 3.7 0 1 0 7.4 0 a3.7 3.7 0 1 0 -7.4 0zM2.64 507.38 a3.7 3.7 0 1 0 7.4 0 a3.7 3.7 0 1 0 -7.4 0zM-29.4 488.88 a3.7 3.7 0 1 0 7.4 0 a3.7 3.7 0 1 0 -7.4 0zM-29.4 451.88 a3.7 3.7 0 1 0 7.4 0 a3.7 3.7 0 1 0 -7.4 0zM66.73 100.38 a3.7 3.7 0 1 0 7.4 0 a3.7 3.7 0 1 0 -7.4 0zM98.77 118.88 a3.7 3.7 0 1 0 7.4 0 a3.7 3.7 0 1 0 -7.4 0zM98.77 155.88 a3.7 3.7 0 1 0 7.4 0 a3.7 3.7 0 1 0 -7.4 0zM66.73 174.38 a3.7 3.7 0 1 0 7.4 0 a3.7 3.7 0 1 0 -7.4 0zM130.82 100.38 a3.7 3.7 0 1 0 7.4 0 a3.7 3.7 0 1 0 -7.4 0zM162.86 118.88 a3.7 3.7 0 1 0 7.4 0 a3.7 3.7 0 1 0 -7.4 0zM162.86 155.88 a3.7 3.7 0 1 0 7.4 0 a3.7 3.7 0 1 0 -7.4 0zM130.82 174.38 a3.7 3.7 0 1 0 7.4 0 a3.7 3.7 0 1 0 -7.4 0zM130.82 211.38 a3.7 3.7 0 1 0 7.4 0 a3.7 3.7 0 1 0 -7.4 0zM162.86 229.88 a3.7 3.7 0 1 0 7.4 0 a3.7 3.7 0 1 0 -7.4 0zM162.86 266.88 a3.7 3.7 0 1 0 7.4 0 a3.7 3.7 0 1 0 -7.4 0zM130.82 285.38 a3.7 3.7 0 1 0 7.4 0 a3.7 3.7 0 1 0 -7.4 0zM98.77 266.88 a3.7 3.7 0 1 0 7.4 0 a3.7 3.7 0 1 0 -7.4 0zM98.77 229.88 a3.7 3.7 0 1 0 7.4 0 a3.7 3.7 0 1 0 -7.4 0zM162.86 488.88 a3.7 3.7 0 1 0 7.4 0 a3.7 3.7 0 1 0 -7.4 0zM194.9 507.38 a3.7 3.7 0 1 0 7.4 0 a3.7 3.7 0 1 0 -7.4 0zM194.9 544.38 a3.7 3.7 0 1 0 7.4 0 a3.7 3.7 0 1 0 -7.4 0zM162.86 562.88 a3.7 3.7 0 1 0 7.4 0 a3.7 3.7 0 1 0 -7.4 0zM130.82 544.38 a3.7 3.7 0 1 0 7.4 0 a3.7 3.7 0 1 0 -7.4 0zM130.82 507.38 a3.7 3.7 0 1 0 7.4 0 a3.7 3.7 0 1 0 -7.4 0zM226.95 44.88 a3.7 3.7 0 1 0 7.4 0 a3.7 3.7 0 1 0 -7.4 0zM258.99 63.38 a3.7 3.7 0 1 0 7.4 0 a3.7 3.7 0 1 0 -7.4 0zM258.99 100.38 a3.7 3.7 0 1 0 7.4 0 a3.7 3.7 0 1 0 -7.4 0zM226.95 118.88 a3.7 3.7 0 1 0 7.4 0 a3.7 3.7 0 1 0 -7.4 0zM194.9 100.38 a3.7 3.7 0 1 0 7.4 0 a3.7 3.7 0 1 0 -7.4 0zM194.9 63.38 a3.7 3.7 0 1 0 7.4 0 a3.7 3.7 0 1 0 -7.4 0zM226.95 562.88 a3.7 3.7 0 1 0 7.4 0 a3.7 3.7 0 1 0 -7.4 0zM226.95 599.88 a3.7 3.7 0 1 0 7.4 0 a3.7 3.7 0 1 0 -7.4 0zM194.9 618.38 a3.7 3.7 0 1 0 7.4 0 a3.7 3.7 0 1 0 -7.4 0zM162.86 599.88 a3.7 3.7 0 1 0 7.4 0 a3.7 3.7 0 1 0 -7.4 0zM291.03 44.88 a3.7 3.7 0 1 0 7.4 0 a3.7 3.7 0 1 0 -7.4 0zM323.08 63.38 a3.7 3.7 0 1 0 7.4 0 a3.7 3.7 0 1 0 -7.4 0zM323.08 100.38 a3.7 3.7 0 1 0 7.4 0 a3.7 3.7 0 1 0 -7.4 0zM291.03 118.88 a3.7 3.7 0 1 0 7.4 0 a3.7 3.7 0 1 0 -7.4 0zM291.03 155.88 a3.7 3.7 0 1 0 7.4 0 a3.7 3.7 0 1 0 -7.4 0zM323.08 174.38 a3.7 3.7 0 1 0 7.4 0 a3.7 3.7 0 1 0 -7.4 0zM323.08 211.38 a3.7 3.7 0 1 0 7.4 0 a3.7 3.7 0 1 0 -7.4 0zM291.03 229.88 a3.7 3.7 0 1 0 7.4 0 a3.7 3.7 0 1 0 -7.4 0zM258.99 211.38 a3.7 3.7 0 1 0 7.4 0 a3.7 3.7 0 1 0 -7.4 0zM258.99 174.38 a3.7 3.7 0 1 0 7.4 0 a3.7 3.7 0 1 0 -7.4 0zM291.03 488.88 a3.7 3.7 0 1 0 7.4 0 a3.7 3.7 0 1 0 -7.4 0zM323.08 507.38 a3.7 3.7 0 1 0 7.4 0 a3.7 3.7 0 1 0 -7.4 0zM323.08 544.38 a3.7 3.7 0 1 0 7.4 0 a3.7 3.7 0 1 0 -7.4 0zM291.03 562.88 a3.7 3.7 0 1 0 7.4 0 a3.7 3.7 0 1 0 -7.4 0zM258.99 544.38 a3.7 3.7 0 1 0 7.4 0 a3.7 3.7 0 1 0 -7.4 0zM258.99 507.38 a3.7 3.7 0 1 0 7.4 0 a3.7 3.7 0 1 0 -7.4 0zM323.08 -10.62 a3.7 3.7 0 1 0 7.4 0 a3.7 3.7 0 1 0 -7.4 0zM355.12 7.88 a3.7 3.7 0 1 0 7.4 0 a3.7 3.7 0 1 0 -7.4 0zM355.12 44.88 a3.7 3.7 0 1 0 7.4 0 a3.7 3.7 0 1 0 -7.4 0zM291.03 7.88 a3.7 3.7 0 1 0 7.4 0 a3.7 3.7 0 1 0 -7.4 0zM355.12 562.88 a3.7 3.7 0 1 0 7.4 0 a3.7 3.7 0 1 0 -7.4 0zM355.12 599.88 a3.7 3.7 0 1 0 7.4 0 a3.7 3.7 0 1 0 -7.4 0zM323.08 618.38 a3.7 3.7 0 1 0 7.4 0 a3.7 3.7 0 1 0 -7.4 0zM291.03 599.88 a3.7 3.7 0 1 0 7.4 0 a3.7 3.7 0 1 0 -7.4 0zM387.17 -10.62 a3.7 3.7 0 1 0 7.4 0 a3.7 3.7 0 1 0 -7.4 0zM419.21 7.88 a3.7 3.7 0 1 0 7.4 0 a3.7 3.7 0 1 0 -7.4 0zM419.21 44.88 a3.7 3.7 0 1 0 7.4 0 a3.7 3.7 0 1 0 -7.4 0zM387.17 63.38 a3.7 3.7 0 1 0 7.4 0 a3.7 3.7 0 1 0 -7.4 0zM419.21 155.88 a3.7 3.7 0 1 0 7.4 0 a3.7 3.7 0 1 0 -7.4 0zM451.25 174.38 a3.7 3.7 0 1 0 7.4 0 a3.7 3.7 0 1 0 -7.4 0zM451.25 211.38 a3.7 3.7 0 1 0 7.4 0 a3.7 3.7 0 1 0 -7.4 0zM419.21 229.88 a3.7 3.7 0 1 0 7.4 0 a3.7 3.7 0 1 0 -7.4 0zM387.17 211.38 a3.7 3.7 0 1 0 7.4 0 a3.7 3.7 0 1 0 -7.4 0zM387.17 174.38 a3.7 3.7 0 1 0 7.4 0 a3.7 3.7 0 1 0 -7.4 0zM483.3 44.88 a3.7 3.7 0 1 0 7.4 0 a3.7 3.7 0 1 0 -7.4 0zM515.34 63.38 a3.7 3.7 0 1 0 7.4 0 a3.7 3.7 0 1 0 -7.4 0zM515.34 100.38 a3.7 3.7 0 1 0 7.4 0 a3.7 3.7 0 1 0 -7.4 0zM483.3 118.88 a3.7 3.7 0 1 0 7.4 0 a3.7 3.7 0 1 0 -7.4 0zM451.25 100.38 a3.7 3.7 0 1 0 7.4 0 a3.7 3.7 0 1 0 -7.4 0zM451.25 63.38 a3.7 3.7 0 1 0 7.4 0 a3.7 3.7 0 1 0 -7.4 0zM483.3 266.88 a3.7 3.7 0 1 0 7.4 0 a3.7 3.7 0 1 0 -7.4 0zM515.34 285.38 a3.7 3.7 0 1 0 7.4 0 a3.7 3.7 0 1 0 -7.4 0zM515.34 322.38 a3.7 3.7 0 1 0 7.4 0 a3.7 3.7 0 1 0 -7.4 0zM483.3 340.88 a3.7 3.7 0 1 0 7.4 0 a3.7 3.7 0 1 0 -7.4 0zM451.25 322.38 a3.7 3.7 0 1 0 7.4 0 a3.7 3.7 0 1 0 -7.4 0zM451.25 285.38 a3.7 3.7 0 1 0 7.4 0 a3.7 3.7 0 1 0 -7.4 0zM451.25 433.38 a3.7 3.7 0 1 0 7.4 0 a3.7 3.7 0 1 0 -7.4 0zM483.3 451.88 a3.7 3.7 0 1 0 7.4 0 a3.7 3.7 0 1 0 -7.4 0zM483.3 488.88 a3.7 3.7 0 1 0 7.4 0 a3.7 3.7 0 1 0 -7.4 0zM451.25 507.38 a3.7 3.7 0 1 0 7.4 0 a3.7 3.7 0 1 0 -7.4 0zM419.21 488.88 a3.7 3.7 0 1 0 7.4 0 a3.7 3.7 0 1 0 -7.4 0zM419.21 451.88 a3.7 3.7 0 1 0 7.4 0 a3.7 3.7 0 1 0 -7.4 0zM547.39 118.88 a3.7 3.7 0 1 0 7.4 0 a3.7 3.7 0 1 0 -7.4 0zM547.39 155.88 a3.7 3.7 0 1 0 7.4 0 a3.7 3.7 0 1 0 -7.4 0zM515.34 174.38 a3.7 3.7 0 1 0 7.4 0 a3.7 3.7 0 1 0 -7.4 0zM483.3 155.88 a3.7 3.7 0 1 0 7.4 0 a3.7 3.7 0 1 0 -7.4 0zM579.43 174.38 a3.7 3.7 0 1 0 7.4 0 a3.7 3.7 0 1 0 -7.4 0zM579.43 211.38 a3.7 3.7 0 1 0 7.4 0 a3.7 3.7 0 1 0 -7.4 0zM547.39 229.88 a3.7 3.7 0 1 0 7.4 0 a3.7 3.7 0 1 0 -7.4 0zM515.34 211.38 a3.7 3.7 0 1 0 7.4 0 a3.7 3.7 0 1 0 -7.4 0zM547.39 377.88 a3.7 3.7 0 1 0 7.4 0 a3.7 3.7 0 1 0 -7.4 0zM579.43 396.38 a3.7 3.7 0 1 0 7.4 0 a3.7 3.7 0 1 0 -7.4 0zM579.43 433.38 a3.7 3.7 0 1 0 7.4 0 a3.7 3.7 0 1 0 -7.4 0zM547.39 451.88 a3.7 3.7 0 1 0 7.4 0 a3.7 3.7 0 1 0 -7.4 0zM515.34 433.38 a3.7 3.7 0 1 0 7.4 0 a3.7 3.7 0 1 0 -7.4 0zM515.34 396.38 a3.7 3.7 0 1 0 7.4 0 a3.7 3.7 0 1 0 -7.4 0zM547.39 488.88 a3.7 3.7 0 1 0 7.4 0 a3.7 3.7 0 1 0 -7.4 0zM579.43 507.38 a3.7 3.7 0 1 0 7.4 0 a3.7 3.7 0 1 0 -7.4 0zM579.43 544.38 a3.7 3.7 0 1 0 7.4 0 a3.7 3.7 0 1 0 -7.4 0zM547.39 562.88 a3.7 3.7 0 1 0 7.4 0 a3.7 3.7 0 1 0 -7.4 0zM515.34 544.38 a3.7 3.7 0 1 0 7.4 0 a3.7 3.7 0 1 0 -7.4 0zM515.34 507.38 a3.7 3.7 0 1 0 7.4 0 a3.7 3.7 0 1 0 -7.4 0zM547.39 599.88 a3.7 3.7 0 1 0 7.4 0 a3.7 3.7 0 1 0 -7.4 0zM515.34 618.38 a3.7 3.7 0 1 0 7.4 0 a3.7 3.7 0 1 0 -7.4 0zM483.3 599.88 a3.7 3.7 0 1 0 7.4 0 a3.7 3.7 0 1 0 -7.4 0zM483.3 562.88 a3.7 3.7 0 1 0 7.4 0 a3.7 3.7 0 1 0 -7.4 0zM611.47 155.88 a3.7 3.7 0 1 0 7.4 0 a3.7 3.7 0 1 0 -7.4 0zM643.52 174.38 a3.7 3.7 0 1 0 7.4 0 a3.7 3.7 0 1 0 -7.4 0zM643.52 211.38 a3.7 3.7 0 1 0 7.4 0 a3.7 3.7 0 1 0 -7.4 0zM611.47 229.88 a3.7 3.7 0 1 0 7.4 0 a3.7 3.7 0 1 0 -7.4 0zM611.47 266.88 a3.7 3.7 0 1 0 7.4 0 a3.7 3.7 0 1 0 -7.4 0zM643.52 285.38 a3.7 3.7 0 1 0 7.4 0 a3.7 3.7 0 1 0 -7.4 0zM643.52 322.38 a3.7 3.7 0 1 0 7.4 0 a3.7 3.7 0 1 0 -7.4 0zM611.47 340.88 a3.7 3.7 0 1 0 7.4 0 a3.7 3.7 0 1 0 -7.4 0zM579.43 322.38 a3.7 3.7 0 1 0 7.4 0 a3.7 3.7 0 1 0 -7.4 0zM579.43 285.38 a3.7 3.7 0 1 0 7.4 0 a3.7 3.7 0 1 0 -7.4 0zM611.47 377.88 a3.7 3.7 0 1 0 7.4 0 a3.7 3.7 0 1 0 -7.4 0zM547.39 340.88 a3.7 3.7 0 1 0 7.4 0 a3.7 3.7 0 1 0 -7.4 0zM643.52 396.38 a3.7 3.7 0 1 0 7.4 0 a3.7 3.7 0 1 0 -7.4 0zM643.52 433.38 a3.7 3.7 0 1 0 7.4 0 a3.7 3.7 0 1 0 -7.4 0zM611.47 451.88 a3.7 3.7 0 1 0 7.4 0 a3.7 3.7 0 1 0 -7.4 0zM611.47 488.88 a3.7 3.7 0 1 0 7.4 0 a3.7 3.7 0 1 0 -7.4 0zM643.52 507.38 a3.7 3.7 0 1 0 7.4 0 a3.7 3.7 0 1 0 -7.4 0zM643.52 544.38 a3.7 3.7 0 1 0 7.4 0 a3.7 3.7 0 1 0 -7.4 0zM611.47 562.88 a3.7 3.7 0 1 0 7.4 0 a3.7 3.7 0 1 0 -7.4 0zM675.56 266.88 a3.7 3.7 0 1 0 7.4 0 a3.7 3.7 0 1 0 -7.4 0zM707.6 285.38 a3.7 3.7 0 1 0 7.4 0 a3.7 3.7 0 1 0 -7.4 0zM707.6 322.38 a3.7 3.7 0 1 0 7.4 0 a3.7 3.7 0 1 0 -7.4 0zM675.56 340.88 a3.7 3.7 0 1 0 7.4 0 a3.7 3.7 0 1 0 -7.4 0zM739.65 340.88 a3.7 3.7 0 1 0 7.4 0 a3.7 3.7 0 1 0 -7.4 0zM739.65 377.88 a3.7 3.7 0 1 0 7.4 0 a3.7 3.7 0 1 0 -7.4 0zM707.6 396.38 a3.7 3.7 0 1 0 7.4 0 a3.7 3.7 0 1 0 -7.4 0zM675.56 377.88 a3.7 3.7 0 1 0 7.4 0 a3.7 3.7 0 1 0 -7.4 0zM771.69 396.38 a3.7 3.7 0 1 0 7.4 0 a3.7 3.7 0 1 0 -7.4 0zM771.69 433.38 a3.7 3.7 0 1 0 7.4 0 a3.7 3.7 0 1 0 -7.4 0zM739.65 451.88 a3.7 3.7 0 1 0 7.4 0 a3.7 3.7 0 1 0 -7.4 0zM707.6 433.38 a3.7 3.7 0 1 0 7.4 0 a3.7 3.7 0 1 0 -7.4 0zM771.69 -10.62 a3.7 3.7 0 1 0 7.4 0 a3.7 3.7 0 1 0 -7.4 0zM803.74 7.88 a3.7 3.7 0 1 0 7.4 0 a3.7 3.7 0 1 0 -7.4 0zM803.74 44.88 a3.7 3.7 0 1 0 7.4 0 a3.7 3.7 0 1 0 -7.4 0zM771.69 63.38 a3.7 3.7 0 1 0 7.4 0 a3.7 3.7 0 1 0 -7.4 0zM739.65 44.88 a3.7 3.7 0 1 0 7.4 0 a3.7 3.7 0 1 0 -7.4 0zM739.65 7.88 a3.7 3.7 0 1 0 7.4 0 a3.7 3.7 0 1 0 -7.4 0zM803.74 266.88 a3.7 3.7 0 1 0 7.4 0 a3.7 3.7 0 1 0 -7.4 0zM835.78 285.38 a3.7 3.7 0 1 0 7.4 0 a3.7 3.7 0 1 0 -7.4 0zM835.78 322.38 a3.7 3.7 0 1 0 7.4 0 a3.7 3.7 0 1 0 -7.4 0zM803.74 340.88 a3.7 3.7 0 1 0 7.4 0 a3.7 3.7 0 1 0 -7.4 0zM771.69 322.38 a3.7 3.7 0 1 0 7.4 0 a3.7 3.7 0 1 0 -7.4 0zM771.69 285.38 a3.7 3.7 0 1 0 7.4 0 a3.7 3.7 0 1 0 -7.4 0zM803.74 488.88 a3.7 3.7 0 1 0 7.4 0 a3.7 3.7 0 1 0 -7.4 0zM835.78 507.38 a3.7 3.7 0 1 0 7.4 0 a3.7 3.7 0 1 0 -7.4 0zM835.78 544.38 a3.7 3.7 0 1 0 7.4 0 a3.7 3.7 0 1 0 -7.4 0zM803.74 562.88 a3.7 3.7 0 1 0 7.4 0 a3.7 3.7 0 1 0 -7.4 0zM771.69 544.38 a3.7 3.7 0 1 0 7.4 0 a3.7 3.7 0 1 0 -7.4 0zM771.69 507.38 a3.7 3.7 0 1 0 7.4 0 a3.7 3.7 0 1 0 -7.4 0zM867.82 266.88 a3.7 3.7 0 1 0 7.4 0 a3.7 3.7 0 1 0 -7.4 0zM899.87 285.38 a3.7 3.7 0 1 0 7.4 0 a3.7 3.7 0 1 0 -7.4 0zM899.87 322.38 a3.7 3.7 0 1 0 7.4 0 a3.7 3.7 0 1 0 -7.4 0zM867.82 340.88 a3.7 3.7 0 1 0 7.4 0 a3.7 3.7 0 1 0 -7.4 0zM867.82 377.88 a3.7 3.7 0 1 0 7.4 0 a3.7 3.7 0 1 0 -7.4 0zM835.78 396.38 a3.7 3.7 0 1 0 7.4 0 a3.7 3.7 0 1 0 -7.4 0zM803.74 377.88 a3.7 3.7 0 1 0 7.4 0 a3.7 3.7 0 1 0 -7.4 0zM931.91 377.88 a3.7 3.7 0 1 0 7.4 0 a3.7 3.7 0 1 0 -7.4 0zM963.96 396.38 a3.7 3.7 0 1 0 7.4 0 a3.7 3.7 0 1 0 -7.4 0zM963.96 433.38 a3.7 3.7 0 1 0 7.4 0 a3.7 3.7 0 1 0 -7.4 0zM931.91 451.88 a3.7 3.7 0 1 0 7.4 0 a3.7 3.7 0 1 0 -7.4 0zM899.87 433.38 a3.7 3.7 0 1 0 7.4 0 a3.7 3.7 0 1 0 -7.4 0zM899.87 396.38 a3.7 3.7 0 1 0 7.4 0 a3.7 3.7 0 1 0 -7.4 0zM931.91 488.88 a3.7 3.7 0 1 0 7.4 0 a3.7 3.7 0 1 0 -7.4 0zM899.87 507.38 a3.7 3.7 0 1 0 7.4 0 a3.7 3.7 0 1 0 -7.4 0zM867.82 488.88 a3.7 3.7 0 1 0 7.4 0 a3.7 3.7 0 1 0 -7.4 0zM867.82 451.88 a3.7 3.7 0 1 0 7.4 0 a3.7 3.7 0 1 0 -7.4 0zM963.96 507.38 a3.7 3.7 0 1 0 7.4 0 a3.7 3.7 0 1 0 -7.4 0zM963.96 544.38 a3.7 3.7 0 1 0 7.4 0 a3.7 3.7 0 1 0 -7.4 0zM931.91 562.88 a3.7 3.7 0 1 0 7.4 0 a3.7 3.7 0 1 0 -7.4 0zM899.87 544.38 a3.7 3.7 0 1 0 7.4 0 a3.7 3.7 0 1 0 -7.4 0zM996 155.88 a3.7 3.7 0 1 0 7.4 0 a3.7 3.7 0 1 0 -7.4 0zM1028.04 174.38 a3.7 3.7 0 1 0 7.4 0 a3.7 3.7 0 1 0 -7.4 0zM1028.04 211.38 a3.7 3.7 0 1 0 7.4 0 a3.7 3.7 0 1 0 -7.4 0zM996 229.88 a3.7 3.7 0 1 0 7.4 0 a3.7 3.7 0 1 0 -7.4 0zM963.96 211.38 a3.7 3.7 0 1 0 7.4 0 a3.7 3.7 0 1 0 -7.4 0zM963.96 174.38 a3.7 3.7 0 1 0 7.4 0 a3.7 3.7 0 1 0 -7.4 0zM1188.26 44.88 a3.7 3.7 0 1 0 7.4 0 a3.7 3.7 0 1 0 -7.4 0zM1220.31 63.38 a3.7 3.7 0 1 0 7.4 0 a3.7 3.7 0 1 0 -7.4 0zM1220.31 100.38 a3.7 3.7 0 1 0 7.4 0 a3.7 3.7 0 1 0 -7.4 0zM1188.26 118.88 a3.7 3.7 0 1 0 7.4 0 a3.7 3.7 0 1 0 -7.4 0zM1156.22 100.38 a3.7 3.7 0 1 0 7.4 0 a3.7 3.7 0 1 0 -7.4 0zM1156.22 63.38 a3.7 3.7 0 1 0 7.4 0 a3.7 3.7 0 1 0 -7.4 0zM1156.22 322.38 a3.7 3.7 0 1 0 7.4 0 a3.7 3.7 0 1 0 -7.4 0zM1188.26 340.88 a3.7 3.7 0 1 0 7.4 0 a3.7 3.7 0 1 0 -7.4 0zM1188.26 377.88 a3.7 3.7 0 1 0 7.4 0 a3.7 3.7 0 1 0 -7.4 0zM1156.22 396.38 a3.7 3.7 0 1 0 7.4 0 a3.7 3.7 0 1 0 -7.4 0zM1124.17 377.88 a3.7 3.7 0 1 0 7.4 0 a3.7 3.7 0 1 0 -7.4 0zM1124.17 340.88 a3.7 3.7 0 1 0 7.4 0 a3.7 3.7 0 1 0 -7.4 0zM1252.35 44.88 a3.7 3.7 0 1 0 7.4 0 a3.7 3.7 0 1 0 -7.4 0zM1284.39 63.38 a3.7 3.7 0 1 0 7.4 0 a3.7 3.7 0 1 0 -7.4 0zM1284.39 100.38 a3.7 3.7 0 1 0 7.4 0 a3.7 3.7 0 1 0 -7.4 0zM1252.35 118.88 a3.7 3.7 0 1 0 7.4 0 a3.7 3.7 0 1 0 -7.4 0zM1252.35 155.88 a3.7 3.7 0 1 0 7.4 0 a3.7 3.7 0 1 0 -7.4 0zM1284.39 174.38 a3.7 3.7 0 1 0 7.4 0 a3.7 3.7 0 1 0 -7.4 0zM1284.39 211.38 a3.7 3.7 0 1 0 7.4 0 a3.7 3.7 0 1 0 -7.4 0zM1252.35 229.88 a3.7 3.7 0 1 0 7.4 0 a3.7 3.7 0 1 0 -7.4 0zM1220.31 211.38 a3.7 3.7 0 1 0 7.4 0 a3.7 3.7 0 1 0 -7.4 0zM1220.31 174.38 a3.7 3.7 0 1 0 7.4 0 a3.7 3.7 0 1 0 -7.4 0zM1252.35 266.88 a3.7 3.7 0 1 0 7.4 0 a3.7 3.7 0 1 0 -7.4 0zM1284.39 285.38 a3.7 3.7 0 1 0 7.4 0 a3.7 3.7 0 1 0 -7.4 0zM1284.39 322.38 a3.7 3.7 0 1 0 7.4 0 a3.7 3.7 0 1 0 -7.4 0zM1252.35 340.88 a3.7 3.7 0 1 0 7.4 0 a3.7 3.7 0 1 0 -7.4 0zM1220.31 322.38 a3.7 3.7 0 1 0 7.4 0 a3.7 3.7 0 1 0 -7.4 0zM1220.31 285.38 a3.7 3.7 0 1 0 7.4 0 a3.7 3.7 0 1 0 -7.4 0zM1380.53 44.88 a3.7 3.7 0 1 0 7.4 0 a3.7 3.7 0 1 0 -7.4 0zM1412.57 63.38 a3.7 3.7 0 1 0 7.4 0 a3.7 3.7 0 1 0 -7.4 0zM1412.57 100.38 a3.7 3.7 0 1 0 7.4 0 a3.7 3.7 0 1 0 -7.4 0zM1380.53 118.88 a3.7 3.7 0 1 0 7.4 0 a3.7 3.7 0 1 0 -7.4 0zM1348.48 100.38 a3.7 3.7 0 1 0 7.4 0 a3.7 3.7 0 1 0 -7.4 0zM1348.48 63.38 a3.7 3.7 0 1 0 7.4 0 a3.7 3.7 0 1 0 -7.4 0zM1380.53 155.88 a3.7 3.7 0 1 0 7.4 0 a3.7 3.7 0 1 0 -7.4 0zM1348.48 174.38 a3.7 3.7 0 1 0 7.4 0 a3.7 3.7 0 1 0 -7.4 0zM1316.44 155.88 a3.7 3.7 0 1 0 7.4 0 a3.7 3.7 0 1 0 -7.4 0zM1316.44 118.88 a3.7 3.7 0 1 0 7.4 0 a3.7 3.7 0 1 0 -7.4 0zM1412.57 174.38 a3.7 3.7 0 1 0 7.4 0 a3.7 3.7 0 1 0 -7.4 0zM1412.57 211.38 a3.7 3.7 0 1 0 7.4 0 a3.7 3.7 0 1 0 -7.4 0zM1380.53 229.88 a3.7 3.7 0 1 0 7.4 0 a3.7 3.7 0 1 0 -7.4 0zM1348.48 211.38 a3.7 3.7 0 1 0 7.4 0 a3.7 3.7 0 1 0 -7.4 0zM1444.61 377.88 a3.7 3.7 0 1 0 7.4 0 a3.7 3.7 0 1 0 -7.4 0zM1476.66 396.38 a3.7 3.7 0 1 0 7.4 0 a3.7 3.7 0 1 0 -7.4 0zM1476.66 433.38 a3.7 3.7 0 1 0 7.4 0 a3.7 3.7 0 1 0 -7.4 0zM1444.61 451.88 a3.7 3.7 0 1 0 7.4 0 a3.7 3.7 0 1 0 -7.4 0zM1412.57 433.38 a3.7 3.7 0 1 0 7.4 0 a3.7 3.7 0 1 0 -7.4 0zM1412.57 396.38 a3.7 3.7 0 1 0 7.4 0 a3.7 3.7 0 1 0 -7.4 0z" fill="rgba(7, 55, 86, 1)"></path><path d="M154.28 340.73L212.31 374.23L212.31 441.23L154.28 474.73L96.26 441.23L96.26 374.23zM270.33 -61.27L328.36 -27.77L328.36 39.23L270.33 72.73L212.31 39.23L212.31 -27.77zM270.33 340.73L328.36 374.23L328.36 441.23L270.33 474.73L212.31 441.23L212.31 374.23zM270.33 541.73L328.36 575.23L328.36 642.23L270.33 675.73L212.31 642.23L212.31 575.23zM386.38 541.73L444.41 575.23L444.41 642.23L386.38 675.73L328.36 642.23L328.36 575.23zM502.43 -61.27L560.46 -27.77L560.46 39.23L502.43 72.73L444.41 39.23L444.41 -27.77zM502.43 139.73L560.46 173.23L560.46 240.23L502.43 273.73L444.41 240.23L444.41 173.23zM502.43 541.73L560.46 575.23L560.46 642.23L502.43 675.73L444.41 642.23L444.41 575.23zM618.48 -61.27L676.51 -27.77L676.51 39.23L618.48 72.73L560.46 39.23L560.46 -27.77zM618.48 340.73L676.51 374.23L676.51 441.23L618.48 474.73L560.46 441.23L560.46 374.23zM676.51 441.23L734.53 474.73L734.53 541.73L676.51 575.23L618.48 541.73L618.48 474.73zM792.56 240.23L850.58 273.73L850.58 340.73L792.56 374.23L734.53 340.73L734.53 273.73zM792.56 441.23L850.58 474.73L850.58 541.73L792.56 575.23L734.53 541.73L734.53 474.73zM850.58 139.73L908.61 173.23L908.61 240.23L850.58 273.73L792.56 240.23L792.56 173.23zM908.61 441.23L966.64 474.73L966.64 541.73L908.61 575.23L850.58 541.73L850.58 474.73zM966.64 -61.27L1024.66 -27.77L1024.66 39.23L966.64 72.73L908.61 39.23L908.61 -27.77zM1024.66 39.23L1082.69 72.73L1082.69 139.73L1024.66 173.23L966.64 139.73L966.64 72.73zM1082.69 139.73L1140.71 173.23L1140.71 240.23L1082.69 273.73L1024.66 240.23L1024.66 173.23zM1082.69 340.73L1140.71 374.23L1140.71 441.23L1082.69 474.73L1024.66 441.23L1024.66 374.23zM1256.76 441.23L1314.79 474.73L1314.79 541.73L1256.76 575.23L1198.74 541.73L1198.74 474.73zM1372.81 240.23L1430.84 273.73L1430.84 340.73L1372.81 374.23L1314.79 340.73L1314.79 273.73zM1314.79 541.73L1372.81 575.23L1372.81 642.23L1314.79 675.73L1256.76 642.23L1256.76 575.23zM1430.84 541.73L1488.86 575.23L1488.86 642.23L1430.84 675.73L1372.81 642.23L1372.81 575.23z" stroke="rgba(6, 80, 156, 0.93)" stroke-width="2"></path></g><defs><mask id="SvgjsMask1004"><rect width="1440" height="560" fill="#ffffff"></rect></mask></defs></svg>